<?xml version="1.0" encoding="UTF-8"?>
<svg width="18px" height="19px" viewBox="0 0 18 19" version="1.1" xmlns="http://www.w3.org/2000/svg" xmlns:xlink="http://www.w3.org/1999/xlink">
    <!-- Generator: Sketch 48.2 (47327) - http://www.bohemiancoding.com/sketch -->
    <title>icon-clear</title>
    <desc>Created with Sketch.</desc>
    <defs>
        <polygon id="path-1" points="0.0987617304 0.164175887 2.99059361 0.164175887 2.99059361 3.05660377 0.0987617304 3.05660377"></polygon>
    </defs>
    <g id="編輯器樣式" stroke="none" stroke-width="1" fill="none" fill-rule="evenodd" transform="translate(-293.000000, -77.000000)">
        <g id="Group-2" transform="translate(84.000000, 68.000000)">
            <g id="Group" transform="translate(200.000000, 0.000000)">
                <g id="icon-clear" transform="translate(9.000000, 9.000000)">
                    <path d="M3.99879184,13.5303233 C4.00966444,13.3911301 3.94688394,13.2583489 3.82132294,13.1573604 C3.69786631,13.0571734 3.52355396,13 3.34327923,13 L0.67247743,13 C0.316838163,13 0.0222257524,13.2059845 0.00118200878,13.4694096 C-0.0096905921,13.6067326 0.054843555,13.7427197 0.178300184,13.8426396 C0.302107543,13.9425594 0.476419886,14 0.656343894,14 L3.32714569,14 C3.68278496,14 3.9777481,13.7937483 3.99879184,13.5303233" id="Fill-1" fill="#FFFFFF"></path>
                    <g id="Group-5" transform="translate(3.000000, 15.000000)">
                        <mask id="mask-2" fill="white">
                            <use xlink:href="#path-1"></use>
                        </mask>
                        <g id="Clip-4"></g>
                        <path d="M1.91995472,0.329841509 L0.26429434,1.98550189 C0.0319924528,2.2181434 0.0459169811,2.6097283 0.2952,2.85935094 C0.412709434,2.97652075 0.5652,3.04648302 0.724822642,3.05565283 C0.736709434,3.05633208 0.748596226,3.0566717 0.760143396,3.0566717 C0.915350943,3.0566717 1.06274717,2.99723774 1.16938868,2.89059623 L2.82538868,1.23459623 C3.05735094,1.00229434 3.04342642,0.610369811 2.79380377,0.36074717 C2.54418113,0.111464151 2.15259623,0.0972 1.91995472,0.329841509" id="Fill-3" fill="#FFFFFF" mask="url(#mask-2)"></path>
                    </g>
                    <path d="M10.1743881,11.7874173 C10.4173969,11.5343631 10.4173969,11.122935 10.1743881,10.8698808 L6.61732183,7.17115871 L12.1720926,1.39498253 L16.6581544,6.06081907 L9.30101309,13.7109731 L7.21060763,13.7109731 C7.11525813,13.7109731 7.02586797,13.6727568 6.95865981,13.6025214 L4.64080606,11.1921375 C4.38885823,10.9301318 4.24980687,10.5813647 4.24980687,10.20953 C4.24980687,9.83769531 4.38885823,9.48892816 4.64080606,9.22692244 L5.73533891,8.08869519 L9.29240515,11.7877616 C9.52846139,12.0325527 9.93899397,12.0322085 10.1743881,11.7874173 M17.3762553,13.7023659 L11.0633235,13.7109731 L17.7023639,6.79932404 C17.8940561,6.59997934 17.9996689,6.33487499 17.9996689,6.05221179 C17.9996689,5.76954858 17.8940561,5.50444423 17.7023639,5.30509953 L12.8885382,0.29875883 C12.5054848,-0.0995862765 11.8350586,-0.0995862765 11.4520052,0.29875883 L3.75683669,8.30077867 C3.26883263,8.80860843 3,9.4834195 3,10.2009227 C3,10.9184259 3.26883263,11.593237 3.75683669,12.1010667 L6.07469045,14.5114506 C6.37762377,14.8264772 6.77987949,15 7.20729689,15 L7.20862118,15 L17.3759243,15 L17.3769175,15 C17.543117,15 17.6993842,14.9325189 17.8169157,14.8102955 C17.9347783,14.6877277 18,14.5248779 18,14.3513551 C18,13.9936363 17.7202419,13.7023659 17.3762553,13.7023659" id="Fill-6" fill="#FFFFFF"></path>
                </g>
            </g>
        </g>
    </g>
</svg>